/* XPM */
static char *Cloud_Canopy1719240354[] = {
/* columns rows colors chars-per-pixel */
"96 48 3 1 ",
"  c None",
". c #BCF2F5",
"X c white",
/* pixels */
"                                                ................................................",
"                                                ...................XXX...........XXX....XXXXXX..",
"                  XXXX                          .......XXXXXX.....XXXXXX...XXXXXXXXX...XXXXXXXX.",
"               XXXXXXXX       XXX               .....XXXXXXXX.....XXXXXXXX.XXXXXXXXX.XXXXXXXXXX.",
"       XXXXXXXXXXXXXXXXX  XXXXXXXX              ....XXXXXXXXX.....XXXXXXXXXXXXXXXX.XXXXX..XXXXX.",
"     XXXXXXXXXX.XXXXXXXXXXXXXXXXXXX             ...XXXXXXXXX.......XXXXXXXXXXXXXXX.XXXXX...XXX..",
"    XXXX.XXXXXX.XXXXXXX...XXXXXXXXXXXXXXX       ...XXXXXXXXXX.........XXXXXXXXXX...XXXX.....XX..",
"   XXXX...XX......XXXX.....XXXXXXXXXXXXXXX      ..XXXXXXXXXXX..XXXXXX..XXX..XXX.....XXX.........",
"   XXX...XXX.......XXX......XX......XXXXXXXX    ..XXXXXX..XXXXXXXXXXXXX.........................",
"  XXXX...XXX........XXX.....XX.....XXXXXXXXXX   ..XXXXXX....XXXXXXXXXXX......XXXXXXXXX.......X..",
"  ..XX...XXX........XXXX....XX...XXXXXXXXXXXXX  ...XXXX.....XXXXXXXXXXXXXXXXXXXXXXXXXXX....XXX..",
"  ..XX...XXX................X.....XXXXXXXXXXXXX ...XXX.....XXXXXXXXXXXXXXXXXXXXXXXXXXXXX.XXXXXX.",
"  ..XX....XX.......................XXXXXXXXXXXX .......XXXXXXXXXXXXXXXX    XXXXXXXXXXXXX..XXXXX.",
"  ..XXX............................XXXXXXXXXXXX ......XXXXXXXXXXXXXX          XXXXXXXXX....XXX..",
"  ..XXX................................XXXXXXXXX.....XXXXXXXXXXXX               XXXXXXX.........",
"  ...XX.............................XXX..XXXXXXX.....XXXXXXXXXXX                 XXX..XXXX....XX",
"   XXXXXXX.........................XXXXXXXXXXXXX.....XXXXXXXXX                   XXX..XXXX....X.",
"   XXXXXXXX........................XXXXXXXXXXXXX.....XXXXXXXX                    XXX..XXXX......",
"   XXXX..................................XXXXX. .....XXXXXXXX                    XXX.XXXXXX.....",
"   XXX..................................XXXXXX. .......XXXXXX                    XXX....XXX.....",
"    X..................................XXXXX... ..XXX..XXXXXX                     XX............",
"    X.......X.........................XXXXX.... ..XXX...XXXXXX                    XXXXX.XXXX....",
"   XX....XXXX........................XXXXX....  ..XXX...XXXXXX                    XXXXXXXXXX....",
"  XXXX..XXXXX........................XXXXX....  .XXXX...XXXXXXX                   XXX.XXXXXXX...",
" XXXXXXXXXXXX.......................XXXXXX....  .XXXX..XXXXXXXX                   XXX..XXXXXXX..",
" XXXXXXXXXXXX.........................XXXX...   .XXXXX.XXXXXXXX                    XX..XXXXXXXX.",
" XXXXXXX....X..........................X....    .XXXXXXXXXXXXX                     XX......XXXXX",
" XXXXXX....................................     ..XXXXXXXXXXX                      XXX..........",
"  XXXX.................................XXX..    ...XXXXXXXXXX                      XXXX.........",
"  XXXX................................XXX....   ......XXXXXXX                      XXX...XXX....",
"  XXX....XXXXX.....................XXXXXXXXXX   .......XXXXXX                     XX.....XXX....",
"   XX....XXXX......................XXXXXXXXXXX  .......XXXXXX                    XXXXXXXXXXX....",
"  .XXXXXX...XXX.........................XXXXXXX .......XXXXXX                   XXXXXXXXXX......",
" XXXXX..................................XXXXXXXX........XXXXXX                 XXXXXXXXXXX......",
".XXXXXXX........X.......................XXXXXXXX........XXXXXXXXXXX           XXXXXXXXXXX..XXXX.",
".XXX.XXXXXXXX...XX......................XXXXXXXX.....XXXXXXXXXXXXXXX      XXXXXXXXXXXXXXX..XXXX.",
".XXX..XXXXXXXX........XXXX.XXXX.........XXXXXXXX....XXXXXXXXXXXXXXXXXXXXXXXXXXXXXXXXXXXX...XXXX.",
".XXX...XXXXX.X.X..XXXXXXXX..XXXXX.XXXXXXXXXXXXXX...XXXXXXXXXXXXXXXXXXXXXXXXXXXXXXXXXXXX..XXXX...",
"..XXX....XXXX.....XXXXXXXX..XXXXXXXXXXXXXXXXXXXX..XXXXXXXXXXXXXXXXXXXXXXXXXXXXXXXXXXXXX..XXXX...",
"...XXX..XXXX....XXXXXXXXXX.....XXXXXXXXXXXXXXXXX.XXXXXXXXXXXXXXXXXXXXXXXXXXXXXX.....XXXXXXXXX...",
"......XXXXXX..X.XXXXX..........XXXXXXXXXXXXXXXXX.XXXXXXXXXXXXXXXXXXXXXXXXXXXXX......XXXXXXXX....",
" ...XXXXXXXX..XXXXX....XXX.....XXXXXXXXXXXXXXXXX.XXXXXXXXXX.XXXXXXXX.....XXXXX....XXXXXXXXXX....",
"  ..XXXXXXX....XXXX....XXXXXX....XXXXXXXXXXXXXXX..XXXXXXX....XXXXXX.......XXXX...XXXXXXX..XXX...",
"   .XXXXX....XXXXX..  .XXXXXXX.....XXXXXXXXX... ...XXXXXX....XXXXXX........XXX..XXXXXXX..XXXX...",
"    .XXX... .XXX...    XXXXXXXXX.....XXXXX....  ....XXX..........XX........XXX..XXXXXXX..XXXX...",
"             XXX..      XXXXXXXX.......XXX...   ...........................XXX..XXXXXXX..XXX....",
"              ..           XXXXX......          ..................X....XXXXXXX.....XXX..........",
"                                                .............XXXXXX...XXXXXXXX.................."
};
