/* XPM */
static char *ed4ba33b6aed410f9686351caeb478532zzLXScARrPAO1Lg[] = {
/* columns rows colors chars-per-pixel */
"16 16 3 1 ",
"  c None",
". c #AA3636",
"X c #ED3232",
/* pixels */
"                ",
"                ",
"                ",
"                ",
"                ",
"     ..  ..     ",
"    .XX..XX.    ",
"   .XXXXXXXX.   ",
"   .XXXXXXXX.   ",
"    .XXXXXX.    ",
"     .XXXX.     ",
"      .XX.      ",
"       ..       ",
"                ",
"                ",
"                "
};
