/* XPM */
static char *_b023500e0bd4c05ed0b7f6b491e628dBsaKPMSMxtRJAUuE[] = {
/* columns rows colors chars-per-pixel */
"64 112 8 1 ",
"  c None",
". c #141B1B",
"X c #2D697B",
"o c #D14B34",
"O c #EF914F",
"+ c #548789",
"@ c #79B8CE",
"# c #E3F1F5",
/* pixels */
"                                                                ",
"   ..........      ..........      ..........      ..........   ",
"  .++++++++++.    .+@@@@@@@@+.   ..@@@@@@@+++.    .+++@@@@@@@.. ",
" .+++@@@@@@+++.  .+@@@@@@@@@@+. .##@@@@@@@@+++.  .+++@@@@@@@@##.",
".X++@@@@@@@@++X..X@@@@@@@@@@@@X..###@@@@@@@+++X..X+++@@@@@@@###.",
".X+##########+X..X+@@@@@@@@@@+X...###@@@@@++++X..X++++@@@@@###..",
".X############X..XX+@@@@@@@@+XX. .o##@@@@+++++X..X+++++@@@@##o. ",
".X###oooooo###X..XXX++++++++XXX. ..##+++++++++X..X+++++++++##.. ",
".X##o..oo..o##X..XXXXXXXXXXXXXX..OO##++++++++XX..XX++++++++##OO.",
".X##oOOOOOOo##X..XXXXXXXXXXXXXX..OO##++++++++XX..XX++++++++##OO.",
" .###OOOOOO###.  .XXXXXXXXXXXX. .####++++++XXX.  .XXX++++++####.",
"  .X########X.    ..XXXXXXXX..   .##XXXXXXXXX.    .XXXXXXXXX##. ",
" .XXXX#XX#XXXX.  .XXX++++++XXX.   ..#XXXXXXXX.    .XXXXXXXX#..  ",
" .oo########oo.  .oo########oo.    .###.oo.#.      .#.oo.###.   ",
" .OO+++..+++OO.  .oo+++XX++Xoo.     .++.OO.+.      .+.OO.++.    ",
"  ..XXX..XXX..    ..XXX..XXX..      .XXX..X.        .X..XXX.    ",
"                   ..........                                   ",
"                  .+@@@@@@@@+.                                  ",
"   ..........    .+@@@@@@@@@@+.    ..........      ..........   ",
"  .++++++++++.  .X@@@@@@@@@@@@X. ..@@@@@@@+++.    .+++@@@@@@@.. ",
" .+++@@@@@@+++. .X+@@@@@@@@@@+X..##@@@@@@@@+++.  .+++@@@@@@@@##.",
".X++@@@@@@@@++X..XX+@@@@@@@@+XX..###@@@@@@@+++X..X+++@@@@@@@###.",
".X+##########+X..XXX++++++++XXX...###@@@@@++++X..X++++@@@@@###..",
".X############X..XXXXXXXXXXXXXX. .o##@@@@+++++X..X+++++@@@@##o. ",
".X###oooooo###X..XXXXXXXXXXXXXX. ..##+++++++++X..X+++++++++##.. ",
".X##o..oo..o##X. .XXXXXXXXXXXX. .OO##++++++++XX..XX++++++++##OO.",
".X##oOOOOOOo##X.  ..XXXXXXXX... .OO##++++++++XX..XX++++++++##OO.",
"..###OOOOOO###.   .XX++++++Xoo. .####++++++XXX.  .XXX++++++####.",
".ooX########XX.   .OO#######..   .##XXXXXXXXX.    .XXXXXXXXX##. ",
" ...XX#XX#XXXX.   .OO..XX++X.     ..OO######.      .######OO..  ",
"   .######OO..     ..  ..XXX.      .OO..+++++.    .+++++..OO.   ",
"    .++...OO.           .XX.        ..  .XXXX.    .XXXX.  ..    ",
"                                                                ",
"   ..........      ..........      ..........      ..........   ",
"  .++++++++++.    .+@@@@@@@@+.   ..@@@@@@@+++.    .+++@@@@@@@.. ",
" .+++@@@@@@+++.  .+@@@@@@@@@@+. .##@@@@@@@@+++.  .+++@@@@@@@@##.",
".X++@@@@@@@@++X..X@@@@@@@@@@@@X..###@@@@@@@+++X..X+++@@@@@@@###.",
".X+##########+X..X+@@@@@@@@@@+X...###@@@@@++++X..X++++@@@@@###..",
".X############X..XX+@@@@@@@@+XX. .o##@@@@+++++X..X+++++@@@@##o. ",
".X###oooooo###X..XXX++++++++XXX. ..##+++++++++X..X+++++++++##.. ",
".X##o..oo..o##X..XXXXXXXXXXXXXX..OO##++++++++XX..XX++++++++##OO.",
".X##oOOOOOOo##X..XXXXXXXXXXXXXX..OO##++++++++XX..XX++++++++##OO.",
" .###OOOOOO###.  .XXXXXXXXXXXX. .####++++++XXX.  .XXX++++++####.",
"  .X########X.    ..XXXXXXXX..   .##XXXXXXXXX.    .XXXXXXXXX##. ",
" .XXXX#XX#XXXX.  .XXX++++++XXX.   ..#XXXXXXXX.    .XXXXXXXX#..  ",
" .oo########oo.  .oo########oo.    .###.oo.#.      .#.oo.###.   ",
" .OO+++..+++OO.  .oo+++XX++Xoo.     .++.OO.+.      .+.OO.++.    ",
"  ..XXX..XXX..    ..XXX..XXX..      .XXX..X.        .X..XXX.    ",
"                   ..........                                   ",
"                  .+@@@@@@@@+.                                  ",
"   ..........    .+@@@@@@@@@@+.    ..........      ..........   ",
"  .++++++++++.  .X@@@@@@@@@@@@X. ..@@@@@@@+++.    .+++@@@@@@@.. ",
" .+++@@@@@@+++. .X+@@@@@@@@@@+X..##@@@@@@@@+++.  .+++@@@@@@@@##.",
".X++@@@@@@@@++X..XX+@@@@@@@@+XX..###@@@@@@@+++X..X+++@@@@@@@###.",
".X+##########+X..XXX++++++++XXX...###@@@@@++++X..X++++@@@@@###..",
".X############X..XXXXXXXXXXXXXX. .o##@@@@+++++X..X+++++@@@@##o. ",
".X###oooooo###X..XXXXXXXXXXXXXX. ..##+++++++++X..X+++++++++##.. ",
".X##o..oo..o##X. .XXXXXXXXXXXX. .OO##++++++++XX..XX++++++++##OO.",
".X##oOOOOOOo##X. ...XXXXXXXX..  .OO##++++++++XX..XX++++++++##OO.",
" .###OOOOOO###.. .ooX++++++XX.  .####++++++XXX.  .XXX++++++####.",
" .XX#########oo.  ..#######OO.   .##XXXXXXXXX.    .XXXXXXXXX##. ",
" .XXXX#XX#XX...    .X++XX..OO.    ...######oo.    .oo######...  ",
"  ..OO######.      .XXX..  ..       .+++++.oo.    .oo.+++++.    ",
"   .OO...++.        .XX.           .XXXX.. ..      .. ..XXXX.   ",
"                   .oo.                                         ",
"                   .oo.                                         ",
"                   ..........      ..........      ..........   ",
"   ..........     .+@@@@@@@@+.   ..@@@@@@@+++.    .+++@@@@@@@.. ",
"  .++++++++++.   .+@@@@@@@@@@+. .##@@@@@@@@+++.  .+++@@@@@@@@##.",
" .+++@@@@@@+++. .X@@@@@@@@@@@@X..###@@@@@@@+++X..X+++@@@@@@@###.",
".X++@@@@@@@@++X..X+@@@@@@@@@@+X...###@@@@@++++X..X++++@@@@@###..",
".X+##########+X..XX+@@@@@@@@+XX. .o##@@@@+++++X..X+++++@@@@##o. ",
".X############X..XXX++++++++XXX. ..##+++++++++X..X+++++++++##.. ",
".X###oooooo###X..XXXXXXXXXXXXXX..OO##++++++++XX..XX++++++++##OO.",
".X##o..oo..o##...XXXXXXXXXXXXXX....XX++++++++XX..XX++++++++XX...",
".X##oOOOOOOo##o. .XXXXXXXXXXXX. OO+++XX++++XXX.  .XXX++++XX+++OO",
" .###OOOOOO###o.  ..#XXXXXXX..  OO+++++XXXXXX.    .XXXXXX+++++OO",
"  .X#########..   .XX##++++XX.  ...++++#####.      .#####++++...",
"  ..++XXX#XX..       XX####.OO.    .....+++++.    .+++++.....   ",
" .XX.OO.####X.         XX...OO.         .XXXX.    .XXXX.        ",
"   ..........      ..........     ...........      ...........  ",
"  .+########+.    .+@@@@@@@@+.   .##@@@@@@+++.    .+++@@@@@@##. ",
" .+##########+.  .+@@@@@@@@@@+.  .###@@@@@@+++.  .+++@@@@@@###. ",
".X###oooooo###X..X@@@@@@@@@@@@X. ..###@@@@@+++X..X+++@@@@@###.. ",
".X##o..oo..o##X..X+@@@@@@@@@@+X.  .o##@@@@++++X..X++++@@@@##o.  ",
".X##oOOOOOOo##X..XX+@@@@@@@@+XX. ...##@@@+++++X..X+++++@@@##... ",
".X###OOOOOO###X..XXX++++++++XXX..OOO##++++++++X..X++++++++##OOO.",
".XX##########XX..XXXXXXXXXXXXXX..OO##++++++++XX..XX++++++++##OO.",
"..XX########XXX..XXXXXXXXXXXXXo..####++++++++XX..XX++++++++####.",
".OOXXX#XX...X..  .XXXXXXXXXXXoo. .##XX..+++XXX.  .XXX+++..XX##. ",
".OOXXX###+++..   ..XXXXXXXXXX..   .XX.OO+++XX.    .XX+++OO.XX.  ",
" ..X##XXXXXX.o.  .X####++++X#.    .++.OO++X#.o.  .o.#X++OO.++.  ",
"   .XXX..XXX.o. .OOXXXX#####X.    .++X..XXXXXo.  .o+XXXX..X++.  ",
"   .XXX.......  .OO....XX++X.     ..... .XXXXX.  .XXXXX. .....  ",
"    .XX.         ..    .XXX.             .XXXX.  .XXXX.         ",
"     ...               ....               .....  .....          ",
"                                                                ",
"                   ..........                                   ",
"                  .+########+.                      .........   ",
"                 ..##########..    ..........      .+++++++++.  ",
"   ..........   .OO##oooooo##OO.  .++++++++++.    .+++@@@@@+++. ",
"  .++++++++++.  .OO#o..oo..o#OO. .+++@@@@@@+++.  .X++@@@@@@@+XX.",
" .+++@@@@@@+++. .++#oOOOOOOo#++..X++@@@@@@@@++X. .+#########+XX.",
".X++@@@@@@@@++X..++##OOOOOO##++..X+##########+X...###########XX.",
".X+##########+X..X+##########+X..X############X.o.###ooooo###XX.",
".X############X. .XX########XX. .X###oooooo###X.o.##..oo..o##XX.",
".X###oooooo###X. .XXXX#XX#XXXX. .X##o..oo..o##....##oOOOOOo##XX.",
".X##o..oo..o##X.  .XXX#XX#XXX.  .X##oOOOOOOo##o. .###O...O##XX. ",
"..##oOOOOOOo##..  .X########X.   .###OOOOOO###o.  .X##.O..XXXX. ",
".oo##########oo.   .XXXXXXXX.    .XX#########..   ..XX.OOXXXX.  ",
".oo..........oo.   .+++..+++.    ..XoOOXX#XX..   .+++X.......X. ",
" ..#         ..    .XXX..XXX.   .XX.OOO.####XX. .XXXX.    .XXXX."
};
