/* XPM */
static char *d9883930149e4fa492d4ce7855d6da049eL5JIW1tisqcKR4[] = {
/* columns rows colors chars-per-pixel */
"128 64 10 1 ",
"  c None",
". c #171819",
"X c #271F1B",
"o c #293F21",
"O c #452A1B",
"+ c #724B2C",
"@ c #477238",
"# c #8C5B3E",
"$ c #61A53F",
"% c #8FD032",
/* pixels */
"  o%%%%%%%%%%%%%%%%%%%%%%%%%%%%%%%%%%%%%%%%%%o    o%%%%%%%%%%o  OOOOOOOOOOOOOOOOOOOOOOOOOOOOOOOO%                              %",
" o%$$$%%%%$$%%%%%%%$$$%%%%$$%%%%%%%$$$%%%%$$%%o  o%$$$%%%%$$%%o OOOOOOOOOOOOOOOOOOOOOOOOOOOOOOOO%%                            %%",
" o$$$%%$$%%$$$%%%%$$$%%$$%%$$$%%%%$$$%%$$%%$$$o  o$$$%%$$%%$$$o OO###OOOOO###OOOOO###OOOOO###OOO%%%                          %%%",
"o%%@$%%@$@%%@%%o$%%@$%%@$@%%@%%o$%%@$%%@$@%%@%%oo%%@$%%@$@%%@%%oO#####OOO#####OOO#####OOO#####OO$%%%                        %%%o",
"oo@$$$o@$@@$$@o$@o@$$$o@$@@$$@o$@o@$$$o@$@@$$@oooo@$$$o@$@@$$@oo################################@%%$%                      %%$%$",
"oo@@$@@Xo$@@X@o@@o@@$@@Xo$@@X@o@@o@@$@@Xo$@@X@oooo@@$@@Xo$@@X@oo##+++#####+++#####+++#####+++###@o%$$%                    %$$%o@",
"o@@@@o@oX@@Xo@o@o@@@@o@oX@@Xo@o@o@@@@o@oX@@Xo@ooo@@@@o@oX@@Xo@oo#+OOO+###+OOO+###+OOO+###+OOO+##o%@@$$%                  %$$@@o@",
"ooXo@XooXooXXoo@ooXo@XooXooXXoo@ooXo@XooXooXXoooooXo@XooXooXXooo+OOOOO+++OOOOO+++OOOOO+++OOOOO++o@X$$%%%                %%%%$@o@",
"oXoooXXXXXXXXXoooXoooXXXXXXXXXoooXoooXXXXXXXXXoooXoooXXXXXXXXXooOOOOOOOOOOOOOOOOOOOOOOOOOOOOOOOOoX@@$%%%%              %%%%$X@oo",
"XXooXX.XXXXOOXXXXXooXXOXXXXOOXXXXXooXXOXXXX..XXXXXooXX.XXXX..XXXOOOOOOOOOOOOOOOOOOOOOOOOOOOOOOOOXXX@$$%$%%            %%$@@@oXoX",
" XXXX.OOOXX##OOOOXXXXOOOOXX##OOOOXXXXOOOOXX##..  XXXX.OOOXX##.. OO###OOOOO###OOOOO###OOOOO###OOOOXoo@@o@$%%          %%$$@@ooXXO",
" .XX.#OOO#####OOO#XX##OOO#####OOO#XX##OOO####..  .XX.#OOO####.. O#####OOO#####OOO#####OOO#####OOOXXo@o@@$%$%        %$%@o$@ooXOO",
" ...#########################################..  ...#########.. ##################################XXoo@X$@%$%      %$%%@@oooX###",
" ...+#####+++#####+++#####+++#####+++#####+++..  ...+#####+++.. ##+++#####+++#####+++#####+++#####+XXXXoo@%$%%    %$$%ooXoXX+###",
" ..OO+###+OOO+###+OOO+###+OOO+###+OOO+###+OOO..  ..OO+###+OOO.. #+OOO+###+OOO+###+OOO+###+OOO+###+OOOXXoX$@%$%%  %%$$$@ooXXOO+##",
" ..OOO+++OOOOO+++OOOOO+++OOOOO+++OOOOO+++OOOO..  ..OOO+++OOOO.. +OOOOO+++OOOOO....OOOO+++OOOOO+++OOOOOXXX@@$@$%%%%$@$@@ooXOOOO++",
" ..OOOOOOOOOOOOOOOOOOOOOOOOOOOOOOOOOOOOOOOOOO..  ..OOOOOOOOOO.. OOOOOOOOOOo%%%%%%%%%%oOOOOOOOOOOOOOOOOOXXo@@$%%$%%%$@oooXOOOOOOO",
" ...OOOOOOOOOOOOOOOOOOOOOOOOOOOOOOOOOOOOOOOO...  ...OOOOOOOO... OOOOOOOOOo%$$$%%%%$$%%oOOOOOOOOOOOOOOOOOXXooX$@%%%$$@oXXOOOOOOOO",
" .OO#OOOOO###OOOOO###OOOOO###OOOOO###OOOOO##OO.  .OO#OOOOO##OO. OO###OOOOo$$$%%$$%%$$$oOOO###OOOOO###OOOOXXXo@$@%$@@@XXOOO###OOO",
" .O###OOO#####OOO#####OOO#####OOO#####OOO####O.  .O###OOO####O. O#####OOo%%@$%%@$@%%@%%oO#####OOO#####OOO#XXX@$o$@$@oXOOO#####OO",
" .O+#######################################++O.  .O+#######++O. ########oo@$$$o@$@@$$@oo###################XXo@$o@XoX###########",
" ..O+#####+++#####+++#####+++#####+++#####+OO..  ..O+#####+OO.. ##+++###oo@@$@@Xo$@@X@oo##+++#####+++#####++XXo@o@oX+#####+++###",
" ..OO+###+OOO+###+OOO+###+OOO+###+OOO+###+OOO..  ..OO+###+OOO.. #+OOO+##o@@@@o@oX@@Xo@oo#+OOO+###+OOO+###+OOXXo@XoXXO+###+OOO+##",
" .OOOO+++OOOOO+++OOOOO+++OOOOO+++OOOOO+++OOOOO.  .OOOO+++OOOOO. +OOOOO++ooXo@XooXooXXooo+OOOOO+++OOOOO+++OOOOXXoXXXOOO+++OOOOO++",
" ..OOOOOOOOOOOOOOOOOOOOOOOOOOOOOOOOOOOOOOOOOO..  ..OOOOOOOOOO.. OOOOOOOOoXoooXXXXXXXXXooOOOOOOOOOOOOOOOOOOOOOOXXXXOOOOOOOOOOOOOO",
" .OOOOOOOOOOOOOOOOOOOOOOOOOOOOOOOOOOOOOOOOOOOO.  .OOOOOOOOOOOO. OOOOOOOOXXooXX.XXXX..XXXOOOOOOOOOOOOOOOOOOOOOOOOOOOOOOOOOOOOOOOO",
" .OO#OOOOO###OOOOO###OOOOO###OOOOO###OOOOO##OO.  .OO#OOOOO##OO. OO###OOOOXXXX.###XX##..OOO###OOOOO###OOOOO###OOOOO###OOOOO###OOO",
" .O###OOO#####OOO#####OOO#####OOO#####OOO####O.  .O###OOO####O. O#####OOO.XX.########..OO#####OOO#####OOO#####OOO#####OOO#####OO",
" ..+#######################################++..  ..+#######++.. #########...++##################################################",
" ..O+#####+++#####+++#####+++#####+++#####+OO..  ..O+#####+OO.. ##+++#####+++#####+++#####+++#####+++#####+++#####+++#####+++###",
" .OOO+###+OOO+###+OOO+###+OOO+###+OOO+###+OOOO.  .OOO+###+OOOO. #+OOO+###+OOO+###+OOO+###+OOO+###+OOO+###+OOO+###+OOO+###+OOO+##",
" ..OOO+++OOOOO+++OOOOO+++OOOOO+++OOOOO+++OOOO..  ..OOO+++OOOO.. +OOOOO+++OOOOO+++OOOOO+++OOOOO+++OOOOO+++OOOOO+++OOOOO+++OOOOO++",
" ..OOOOOOOOOOOOOOOOOOOOOOOOOOOOOOOOOOOOOOOOOO..  ..OOOOOOOOOO.. %%                                                            %%",
" ...OOOOOOOOOOOOOOOOOOOOOOOOOOOOOOOOOOOOOOOO...  ...OOOOOOOO... %%%%                                                        %%%%",
" .OO#OOOOO###OOOOO###OOOOO###OOOOO###OOOOO##OO.  .OO#OOOOO##OO. %%%$%%                                                    %%%%%%",
" .O###OOO#####OOO#####OOO#####OOO#####OOO####O.  .O###OOO####O. $%$$$$%%                                                %%$$$$%$",
" .O+#######################################++O.  .O+#######++O. @o%@$%%%%%                                            %%%%%$@o$$",
" ..O+#####+++#####+++#####+++#####+++#####+OO..  ..O+#####+OO.. @o@$$%%$%%%%                                        %%%%$%%%$@o@",
" ..OO+###+OOO+###+OOO+###+OOO+###+OOO+###+OOO..  ..OO+###+OOO.. o@@@$$%@$%$$%%                                    %%$$%$$@@$X@oo",
" .OOOO+++OOOOO+++OOOOO+++OOOOO+++OOOOO+++OOOOO.  .OOOO+++OOOOO. ooX@$@o@$@%$%%%%                                %%%$$%%@$@@@X@oo",
" ..OOOOOOOOOOOOOOOOOOOOOOOOOOOOOOOOOOOOOOOOOO..  ..OOOOOOOOOO.. oXoo@o@X$@%%$$%%%%                            %%%%$$$%o@$$@XXooo",
" ..OOOOOOOOOOOOOOOOOOOOOOOOOOOOOOOOOOOOOOOOOO..  ..OOOOOOOOOO.. XXooXX@oX$@$@%%%%%%%                        %%%%%%%@$$Xo@$@XXXXX",
" ..##OOOOO###OOOOO###OOOOO###OOOOO###OOOOO###..  ..##OOOOO###.. OXXXXXooX@@@X@%o%%%$%%                    %%%%%%$%@$$@@Xo@oX#XXO",
"  .+##OOO#####OOO#####OOO#####OOO#####OOO###+.    .+##OOO###+.  O#XX#XXXXo@Xo@o$$%$$$$%%                %%$$$$%o@o@@XooXooX###OO",
"  ..++####+++#####+++#####+++#####+++####+++..    ..++###+++..  #######XXooXo@o@@o%@$%%%%%            %%%%%$@%o$@o@@@XXXXX#####O",
"   ...++++...+++++...+++++...+++++...++++....      ...+++....   ##+++###XXXXXoo@@o@$$%%$%%%%        %%%%$%%%$@o@o@XooXXX##+++###",
"   ..........................................      ..........   #+OOO+###XXOXoo@o@@@$$%@$%$$%%    %%$$%$$@@$X@o@oooXXX###+OOO+##",
"     ......................................          ......     +OOOOO+++OOOOXooooX@$@o@$@%$%%%%%%%$$%%@$@@@X@o@ooXXXO+++OOOOO++",
"  o%%%%%%%%%%%%%%%%%%%%%%%%%%%%%%%%%%%%%%%%%%o    o%%%%%%%%%%o  OOOOOOOOOOOOOOXXoXoo@o@X$@%%$$%%$%$$$%o@$$@XXoooXXXOOOOOOOOOOOOO",
" o%$$$%%%%$$%%%%%%%$$$%%%%$$%%%%%%%$$$%%%%$$%%o  o%$$$%%%%$$%%o OOOOOOOOOOOOOOOOXXooXX@oX$@$@%%$%%%@$$Xo@$@XXXXXOOOOOOOOOOOOOOOO",
" o$$$%%$$%%$$$%%%%$$$%%$$%%$$$%%%%$$$%%$$%%$$$o  o$$$%%$$%%$$$o OO###OOOOO###OOOOXXXXXooX@@@X@$o$%@$$@@Xo@oX#XXXOO###OOOOO###OOO",
"o%%@$%%@$@%%@%%o$%%@$%%@$@%%@%%o$%%@$%%@$@%%@%%oo%%@$%%@$@%%@%%oO#####OOO#####OOO#XX#XXXXo@Xo@o$@o@@XooXooX###OOO#####OOO#####OO",
"oo@$$$o@$@@$$@o$@o@$$$o@$@@$$@o$@o@$$$o@$@@$$@oooo@$$$o@$@@$$@oo#######################XXooXo@o@@@o@@XXXXX######################",
"oo@@$@@Xo$@@X@o@@o@@$@@Xo$@@X@o@@o@@$@@Xo$@@X@oooo@@$@@Xo$@@X@oo##+++#####+++#####+++###XXXXXoo@@oXooXXX##+++#####+++#####+++###",
"o@@@@o@oX@@Xo@o@o@@@@o@oX@@Xo@o@o@@@@o@oX@@Xo@ooo@@@@o@oX@@Xo@oo#+OOO+###+OOO+###+OOO+###XXOXXooXooXXX###+OOO+###+OOO+###+OOO+##",
"ooXo@XooXooXXoo@ooXo@XooXooXXoo@ooXo@XooXooXXoooooXo@XooXooXXooo+OOOOO+++OOOOO+++OOOOO+++OOOOXXXooXXXO+++OOOOO+++OOOOO+++OOOOO++",
"oXoooXXXXXXXXXoooXoooXXXXXXXXXoooXoooXXXXXXXXXoooXoooXXXXXXXXXooOOOOOOOOOOOOOOOOOOOOOOOOOOOOOOXXXXOOOOOOOOOOOOOOOOOOOOOOOOOOOOOO",
"XXooXXOXXXXOOXXXXXooXXOXXXXOOXXXXXooXXOXXXXOOXXXXXooXXOXXXXOOXXXOOOOOOOOOOOOOOOOOOOOOOOOOOOOOOOOOOOOOOOOOOOOOOOOOOOOOOOOOOOOOOOO",
" XXXXOOOOXX##OOOOXXXXOOOOXX##OOOOXXXXOOOOXX##..  XXXXOOOOXX##.. OO###OOOOO###OOOOO###OOOOO####OOOO###OOOOO###OOOOO###OOOOO###OOO",
" .XX##OOO#####OOO#XX##OOO#####OOO#XX##OOO###+..  .XX##OOO###+.. O#####OOO#####OOO#####OOO######OO#####OOO#####OOO#####OOO#####OO",
" ...++####+++#####+++#####+++#####+++####+++...  ...++###+++... ################################################################",
"   ...++++...+++++...+++++...+++++...++++....      ...+++....   ##+++#####+++#####+++#####+++#####+++#####+++#####+++#####+++###",
"   ..........................................      ..........   #+OOO+###+OOO+###+OOO+###+OOO+###+OOO+###+OOO+###+OOO+###+OOO+##",
"     ......................................          ......     +OOOOO+++OOOOO+++OOOOO+++OOOOO+++OOOOO+++OOOOO+++OOOOO+++OOOOO++"
};
