/* XPM */
static char *fecc38e4dfd84ffccfd81b0176492c01487hYrYNMwyraBah[] = {
/* columns rows colors chars-per-pixel */
"32 32 2 1 ",
"  c #D8B9B7",
". c #E3C5C6",
/* pixels */
"                                ",
"                                ",
"...........  ..............  ...",
"...........  ..............  ...",
"...........  ..............  ...",
"...........  ..............  ...",
"...........  ..............  ...",
"...........  ..............  ...",
"                                ",
"                                ",
"....  ..............  ..........",
"....  ..............  ..........",
"....  ..............  ..........",
"....  ..............  ..........",
"....  ..............  ..........",
"....  ..............  ..........",
"                                ",
"                                ",
"...........  ..............  ...",
"...........  ..............  ...",
"...........  ..............  ...",
"...........  ..............  ...",
"...........  ..............  ...",
"...........  ..............  ...",
"                                ",
"                                ",
"....  ..............  ..........",
"....  ..............  ..........",
"....  ..............  ..........",
"....  ..............  ..........",
"....  ..............  ..........",
"....  ..............  .........."
};
