/* XPM */
static char *f178c1eb067c4aeccc382cccfe9b6e64VQWW1lmVo6px1gVT[] = {
/* columns rows colors chars-per-pixel */
"32 32 8 1 ",
"  c #E9BF61",
". c #8F2C28",
"X c #6C131B",
"o c #A82727",
"O c #D36666",
"+ c #FFC2C2",
"@ c white",
"% c white",
/* pixels */
"                                ",
"                                ",
"                                ",
"                                ",
"                                ",
"                                ",
"                                ",
"                                ",
"                                ",
"             .......            ",
"           ..OOO++++..          ",
"          .OOOOOOOO+++.         ",
"         .OOOOOOOOOOO++.        ",
"        .oooooOOOOOOOOOO.       ",
"       .ooooooooooooOOOOO.      ",
"      .oooooooooo%oooo%ooo.     ",
"      .oooooooooo%oooo%ooo.     ",
"     .Xoooooooooo%oooo%oooo.    ",
"     .XXooooooooo%oooo%oooo.    ",
"     .XXXXXoooooooooooooooo.    ",
"     .XXXXXXXXXXXXXXXXXoooo.    ",
"      .XXXXXXXXXXXXXXXXXXX.     ",
"       .XXXXXXXXXXXXXXXXX.      ",
"        .................       ",
"                                ",
"                                ",
"                                ",
"                                ",
"                                ",
"                                ",
"                                ",
"                                "
};
