/* XPM */
static char *f178c1eb067c4aeccc382cccfe9b6e64VQWW1lmVo6px1gVT[] = {
/* columns rows colors chars-per-pixel */
"32 32 8 1 ",
"  c #E9BF61",
". c #8F2C28",
"X c #6C131B",
"o c #A82727",
"O c #D36666",
"+ c #FFC2C2",
"@ c white",
"% c white",
/* pixels */
"                                ",
"                                ",
"                                ",
"                                ",
"                                ",
"                                ",
"                                ",
"                                ",
"                                ",
"                                ",
"                                ",
"            .......             ",
"         ...OOOO+++...          ",
"        .OOOOOOOOOO+++.         ",
"       .ooooOOOOOOOOOOO.        ",
"      .oooooooooooooOOOO.       ",
"     .oooooooooo%oooo%ooo.      ",
"    .ooooooooooo%oooo%oooo.     ",
"    .ooooooooooo%oooo%oooo.     ",
"   .Xooooooooooo%oooo%ooooo.    ",
"   .XXooooooooooooooooooooo.    ",
"    .XXXXXXXXXXXXXXXXXXooo.     ",
"     .XXXXXXXXXXXXXXXXXXX.      ",
"      ...................       ",
"                                ",
"                                ",
"                                ",
"                                ",
"                                ",
"                                ",
"                                ",
"                                "
};
