/* XPM */
static char *d526468b1283438def2d5c290355ef098A4mxrern6SUxn1G[] = {
/* columns rows colors chars-per-pixel */
"32 32 8 1 ",
"  c #E9BF61",
". c #DFB761",
"X c #EECC85",
"o c #BF9070",
"O c #A07356",
"+ c #604031",
"@ c #754D3E",
"# c white",
/* pixels */
"                                ",
"                                ",
"                                ",
"           .......  ..          ",
"             .........          ",
"               ..ooXoX  ...     ",
"              XOoOOoOoX...      ",
"          ..OOOOOOOOOOOoo...    ",
"          ..XOOOOOOOOOOO..      ",
"        ..OOOOOOOO++++OOOOOo..  ",
"   ....OOOOOO++oooo+OOOOOOO..   ",
"  ......oOOO+oo@@@@oOOOOOOOoo   ",
"  ..XOOOOOO+o@@@@@@@OOOOOOOO..  ",
" .....OOOO+o@@@@@@@@OOOOOOOOO.. ",
"   ..oOOO+o@@@@@@@@@OOOOOOOOOX  ",
"  ..XXOO+o@@@@@@@@@OOOOOOOOOOOX ",
" ..XXoO+o@@@@@@@@@+OOOOOO+OOO.. ",
"   ..oO+o@@@@@@@@+OOOOOO+oOOOO..",
"  ..XXOOO@@@@@@@+OOOOOO+o@oOOXX ",
"  .XX.OOOO@@@@++OOOOOOOo@@@OO.. ",
"   ...OOOOOOOOOOOOOOOOOo@@+OOO. ",
"  ...OOOOOOOOOOOOO+++OOO@+OOOO  ",
"  ...oOOOOOOOOOO++oooOOOOOOO..  ",
" ...oo..OOOOOOO+oo@@@oOOOOO...  ",
"   ....XoOOOOOOo@@@@@@OOO.OO... ",
"  ....Xo.OOOOOOo@@@@@+OOO..OX   ",
"  ... ...OOO.O.O@@@++O.OO...    ",
"  .  ...XOO....OOOO.OO..X ..    ",
"     ..  X.. ...OO..OX..   .    ",
"     .   ..  ..  ...   .        ",
"             .  ...             ",
"                                "
};
