/* XPM */
static char *_3fd765a672143d3a26494b38b3fba3aE6fUn467rFydxXkt[] = {
/* columns rows colors chars-per-pixel */
"32 32 7 1 ",
"  c #E9BF61",
". c #A07356",
"X c #73472C",
"o c #C69A5C",
"O c #754D3E",
"+ c #DFB761",
"@ c white",
/* pixels */
"                                ",
"                                ",
"                                ",
"            ..                  ",
"             ..XX .             ",
"          ..XXXXX..             ",
"           ..XoooXX             ",
"           XoooOooX             ",
"            ..OOO..             ",
"           .. o.o .             ",
"              ..                ",
"                                ",
"                                ",
"                                ",
"                                ",
"     ..                .        ",
"  . X.         .  .. X..  .     ",
"  ..XXX..    . ..  ..X.X..      ",
"   XooXX   . .. ..XXXo.oXX      ",
"   ..o..   .....XXXooOoOoX..    ",
"   .   .    ..X.oooOOOOOOoX     ",
"             .XooOOOoooOOOo     ",
"           ....oOOOo+++OOO...   ",
"          ... oOOOo+++OOO.o     ",
"           . ..OOOOOOOO.O..     ",
"            ..oOOOOOOO..o..     ",
"             ...O.OO.O.. .      ",
"            ...o..o.. .         ",
"                . ..            ",
"                                ",
"                                ",
"                                "
};
