/* XPM */
static char *_0477448b1454939d07afb07e3e61dd0Lj6o1pvZZ9ak9HGY[] = {
/* columns rows colors chars-per-pixel */
"32 32 9 1 ",
"  c #E9BF61",
". c #332041",
"X c #6C3B4F",
"o c #50576B",
"O c #B8614E",
"+ c #F29546",
"@ c #8D87A2",
"# c #BCB7C5",
"$ c #F8F8F8",
/* pixels */
"                                ",
"                                ",
"                                ",
"                                ",
"                                ",
"                                ",
"                                ",
"                                ",
"          XXXX                  ",
"         XO++OX.                ",
"        XO++++OO.               ",
"        X++++++OX.              ",
"        X++++++OO.              ",
"        XO++++OOOX.             ",
"         XO++OOOOX.             ",
"         .OOOOOOXXX.            ",
"          .XOOOXXXX.            ",
"           ..XXXXXXX.           ",
"             ..XXXX.@           ",
"               ..X.$$@          ",
"                 .o#$$@@@       ",
"                   o#$$$$o      ",
"                    o$$$#o      ",
"                    o$##o       ",
"                    o$$o        ",
"                     oo         ",
"                                ",
"                                ",
"                                ",
"                                ",
"                                ",
"                                "
};
