/* XPM */
static char *f178c1eb067c4aeccc382cccfe9b6e64VQWW1lmVo6px1gVT[] = {
/* columns rows colors chars-per-pixel */
"32 32 7 1 ",
"  c None",
". c black",
"X c #73E785",
"o c #D8F8BE",
"O c #2BBF70",
"+ c #19947A",
"@ c white",
/* pixels */
"                                ",
"                                ",
"                                ",
"                                ",
"                                ",
"                                ",
"                                ",
"                                ",
"                                ",
"             .......            ",
"           ..XXXoooo..          ",
"          .XXXXXXXXooo.         ",
"         .XXXXXXXXXXXoo.        ",
"        .OOOOOXXXXXXXXXX.       ",
"       .OOOOOOOOOOOOXXXXX.      ",
"      .OOOOOOOOOO.OOOO.OOO.     ",
"      .OOOOOOOOOO.OOOO.OOO.     ",
"     .+OOOOOOOOOO.OOOO.OOOO.    ",
"     .++OOOOOOOOO.OOOO.OOOO.    ",
"     .+++++OOOOOOOOOOOOOOOO.    ",
"     .+++++++++++++++++OOOO.    ",
"      .+++++++++++++++++++.     ",
"       .+++++++++++++++++.      ",
"        .................       ",
"                                ",
"                                ",
"                                ",
"                                ",
"                                ",
"                                ",
"                                ",
"                                "
};
