/* XPM */
static char *f178c1eb067c4aeccc382cccfe9b6e64VQWW1lmVo6px1gVT[] = {
/* columns rows colors chars-per-pixel */
"32 32 8 1 ",
"  c #E9BF61",
". c #126353",
"O c #66D379",
"+ c #C2E1AA",
"o c #27A863",
"X c #168369",
"@ c white",
"% c black",
/* pixels */
"                                ",
"                                ",
"                                ",
"                                ",
"                                ",
"                                ",
"                                ",
"                                ",
"                                ",
"                                ",
"                                ",
"                                ",
"             .......            ",
"          ...OOOO+++...         ",
"        ..OOOOOOOOOO+++..       ",
"       .ooooooooooOOOOOOO.      ",
"     ..ooooooooooooooooooo..    ",
"    .oooooooooooo%oooo%ooooo.   ",
"    .oooooooooooo%oooo%ooooo.   ",
"   .Xoooooooooooo%oooo%oooooo.  ",
"   .XXooooooooooo%oooo%oooooo.  ",
"    .XXXXXXXXXXXXXXXXXXXoooo.   ",
"     ..XXXXXXXXXXXXXXXXXXX..    ",
"       ..................       ",
"                                ",
"                                ",
"                                ",
"                                ",
"                                ",
"                                ",
"                                ",
"                                "
};
