/* XPM */
static char *_a3b77c221604e8dc80edf4388c160dfy8EoZsqpGOn9RYF7[] = {
/* columns rows colors chars-per-pixel */
"32 32 4 1 ",
"  c #A08662",
". c #796755",
"X c #5A4E44",
"o c white",
/* pixels */
"  .         .          .        ",
"                .X..            ",
"                X.X.            ",
"               ...              ",
"                                ",
"     ....                       ",
"  ...XX.                        ",
"   ..X..                        ",
"                                ",
"                                ",
"                                ",
"                                ",
"                           ..   ",
"    XXX                    ..   ",
"    .X. X                       ",
"        .         .XXX          ",
"                  ....          ",
"                                ",
"                                ",
"      ..                        ",
"       ..                       ",
"                                ",
"                                ",
"                                ",
" .             .                ",
"              ...      ..       ",
"              ...      ..       ",
"                                ",
"                                ",
"                                ",
"                                ",
"                                "
};
