/* XPM */
static char *_ee03dc1419e437ad2519f58cc6a429aLRWDRNXS57OH9Luo[] = {
/* columns rows colors chars-per-pixel */
"32 32 6 1 ",
"  c #E9BF61",
". c #EED9AD",
"X c #EECC85",
"o c #CDA859",
"O c #DFB761",
"+ c white",
/* pixels */
"                                ",
"                                ",
"                                ",
"                                ",
"                                ",
"                      ..        ",
"                     XXo        ",
"                      O         ",
"                                ",
"           X.                   ",
"          XXo                   ",
"           O                    ",
"                                ",
"                                ",
"              X.    .....       ",
"             XXo    o.XXX X     ",
"              O      oO.XX      ",
"                       OO X     ",
"                         O      ",
"           ...                  ",
"         X..X.                  ",
"        XXXX.o                  ",
"         X XO                   ",
"        X XO         .X         ",
"                     oXX        ",
"                      O         ",
"                                ",
"                                ",
"                                ",
"                                ",
"                                ",
"                                "
};
