/* XPM */
static char *b1d9b54a2244492fa2ac6d907bffde97ch4AtE3t06uOWjaM[] = {
/* columns rows colors chars-per-pixel */
"32 32 11 1 ",
"  c #E9BF61",
". c #C48D69",
"X c #604031",
"o c #8C6449",
"O c #DFBF90",
"+ c #C9AB81",
"@ c #AF9570",
"# c #754D3E",
"$ c #86A35A",
"% c #AAC66B",
"& c white",
/* pixels */
"                                ",
"                                ",
"                                ",
"                                ",
"             .. ..              ",
"           X...XXX  ..          ",
"       .. XoooooooX..           ",
"        ..oOOOOOOOoooX..        ",
"        XoOO+++O++OOOoX         ",
"        XoO++OOOO++OOOoX        ",
"        X.++OOO++OOO+OOX.       ",
"        ..O++OO+OOO++OO..       ",
"        .OOO++OOOO++OOO.        ",
"        X.OO.OOO@@+OOO.X        ",
"        XX.O..++O@@+O.XX        ",
"        XX#...OOOO@@+.#X        ",
"        XX###X...+@@@o#XX       ",
"       XX####XX##+@@@o#XX$ %    ",
"      $XX####XX###@#@o##Xo%%    ",
"     %oX####XXX###+X+o##Xo%     ",
"   %$%oX####XXXX###XXo#XXo$$    ",
"   %%$oXX##XXXXX####XXXXo%%     ",
"    %$$oXXXXXXXXX##XXX%o%%$     ",
"     $%$oXXX%oXXX%XXo%%$$$      ",
"    %$%%$oo%%$ooo%%o$%$$$       ",
"    $%$%$$$%$$$$$$%$$$  $$      ",
"          $$$$  $$$$            ",
"           $$    $$             ",
"                                ",
"                                ",
"                                ",
"                                "
};
