/* XPM */
static char *_93dcfd4296d4becacdee9d9016f910caMfz4D1IT1jdabAD[] = {
/* columns rows colors chars-per-pixel */
"32 32 10 1 ",
"  c #E9BF61",
". c #C5D5D1",
"X c #AFBDBB",
"o c #87A3A2",
"O c #5D8187",
"+ c #749391",
"@ c #AAC66B",
"# c #BBDB78",
"$ c #86A35A",
"% c white",
/* pixels */
"                                ",
"                                ",
"                                ",
"              .....             ",
"            ..XXXXX..           ",
"           .XXXXXXXXX.          ",
"          .XXXXXXXXXXX.         ",
"          .XXXXXXXXXXXX.        ",
"       .Xo..XXXXXXXXXXXX.       ",
"      .XXXo...XXXXXXXXXXX.      ",
"      XXXXXo....XXXXXXX...      ",
"      .XX.XoO....X.X.X...O      ",
"      o..X.+O@..........O+      ",
"     ooo..++Oo@@......@++O      ",
"     ooo++++ooo@@@@@@@o+O+      ",
"    oOOOOO+oooooooo@@o++O+O     ",
"   #oXXXXXOooooXXXXooo++OO+     ",
"   oXXXXXXXOoo.XXXXXoO++O+O     ",
" #$o.XXXXXXXOoo..X.X.O++OO+     ",
" $$o..XXXXXXXOoo..X..O+OO+O+ #  ",
"  $#o..XXXXXXXOoo...+OOOOOO+#@  ",
" $#@oo..XXXXX.Ooo+++++OXXXXO@$  ",
"  @$oo@..X.X..O+o+++#OXXXX.X$$$ ",
"   $O#o@@....+O#++#O@#.XX.X.$   ",
"   $#@ooo@+++O#@O#@$$@+.#..+$   ",
"  $$@$O#oo+++O@$$@$$ $$+@#+$    ",
"    $$$@#o+#+O$$  $   $$$@$$$   ",
"    $ $$@O@@O$$$$    $$  $ $$$  ",
"   $  $$$$@$$ $$$    $       $  ",
"      $$   $$   $$              ",
"      $     $                   ",
"                                "
};
